<mxfile host="65bd71144e">
    <diagram id="TbjjGQmck7xkVz-HbTx0" name="Page-1">
        <mxGraphModel dx="886" dy="632" grid="1" gridSize="10" guides="1" tooltips="1" connect="1" arrows="1" fold="1" page="1" pageScale="1" pageWidth="1100" pageHeight="850" math="0" shadow="0">
            <root>
                <mxCell id="0"/>
                <mxCell id="1" parent="0"/>
                <mxCell id="9" style="edgeStyle=orthogonalEdgeStyle;rounded=0;orthogonalLoop=1;jettySize=auto;html=1;exitX=1;exitY=0.5;exitDx=0;exitDy=0;entryX=0.5;entryY=0;entryDx=0;entryDy=0;" edge="1" parent="1" source="3" target="8">
                    <mxGeometry relative="1" as="geometry"/>
                </mxCell>
                <mxCell id="3" value="DistributedDataParallel" style="swimlane;horizontal=0;" vertex="1" parent="1">
                    <mxGeometry x="160" y="60" width="300" height="200" as="geometry"/>
                </mxCell>
                <mxCell id="2" value="Model" style="rounded=1;whiteSpace=wrap;html=1;" vertex="1" parent="3">
                    <mxGeometry x="40" y="70" width="120" height="60" as="geometry"/>
                </mxCell>
                <mxCell id="4" value="Model can be further chunked/sent to different devices, i.e. multiple GPUs per node" style="text;html=1;strokeColor=none;fillColor=none;align=center;verticalAlign=middle;whiteSpace=wrap;rounded=0;" vertex="1" parent="3">
                    <mxGeometry x="170" y="40" width="120" height="120" as="geometry"/>
                </mxCell>
                <mxCell id="10" style="edgeStyle=orthogonalEdgeStyle;rounded=0;orthogonalLoop=1;jettySize=auto;html=1;entryX=0.5;entryY=1;entryDx=0;entryDy=0;" edge="1" parent="1" source="5" target="8">
                    <mxGeometry relative="1" as="geometry"/>
                </mxCell>
                <mxCell id="5" value="DataLoader" style="swimlane;horizontal=0;" vertex="1" parent="1">
                    <mxGeometry x="160" y="300" width="300" height="220" as="geometry"/>
                </mxCell>
                <mxCell id="7" value="DistributedDataParallel" style="swimlane;horizontal=0;" vertex="1" parent="5">
                    <mxGeometry x="60" y="25" width="200" height="160" as="geometry"/>
                </mxCell>
                <mxCell id="6" value="Dataset" style="rounded=1;whiteSpace=wrap;html=1;" vertex="1" parent="7">
                    <mxGeometry x="50" y="50" width="120" height="60" as="geometry"/>
                </mxCell>
                <mxCell id="8" value="Training&lt;br&gt;Loop" style="ellipse;whiteSpace=wrap;html=1;aspect=fixed;" vertex="1" parent="1">
                    <mxGeometry x="520" y="240" width="80" height="80" as="geometry"/>
                </mxCell>
                <mxCell id="11" value="torch.distributed.launch" style="swimlane;horizontal=0;" vertex="1" parent="1">
                    <mxGeometry x="110" y="40" width="740" height="500" as="geometry"/>
                </mxCell>
                <mxCell id="12" value="&lt;h1&gt;Launch&lt;/h1&gt;&lt;p&gt;Everything is wrapped up in the `torch.distributed.launch` CLI, which is called by each worker node.&lt;/p&gt;&lt;p&gt;The head node will dispatch a script containing that call, using whatever batch scheduler system&lt;/p&gt;" style="text;html=1;strokeColor=none;fillColor=none;spacing=5;spacingTop=-20;whiteSpace=wrap;overflow=hidden;rounded=0;" vertex="1" parent="11">
                    <mxGeometry x="520" y="157.5" width="190" height="165" as="geometry"/>
                </mxCell>
            </root>
        </mxGraphModel>
    </diagram>
</mxfile>